<?xml version="1.0" encoding="utf-8"?>
<!-- Generator: Adobe Illustrator 27.0.0, SVG Export Plug-In . SVG Version: 6.00 Build 0)  -->
<svg version="1.1" id="Layer_1" xmlns="http://www.w3.org/2000/svg" xmlns:xlink="http://www.w3.org/1999/xlink" x="0px" y="0px"
	 viewBox="0 0 2164.33 962.5" style="enable-background:new 0 0 2164.33 962.5;" xml:space="preserve">
<style type="text/css">
	.st0{fill:#FFFFFF;}
	.st1{font-family:'FukuCatchRegular';}
	.st2{font-size:493.5563px;}
</style>
<g>
	<g>
		<path class="st0" d="M615.22,681.97l-34.47-83.1l-117.71,117.6l-0.03-0.04l-58.67,58.68l-11.65,11.64
			c-12.31,11.65-28.92,18.79-47.2,18.79c-17.61,0-33.68-6.63-45.83-17.54l-0.01-0.01l-5.16-5.15l-0.07-0.07l-134.6-134.61
			l-0.53-0.52l-0.72-0.72c-12.16-12.38-19.66-29.37-19.66-48.09c0-18.76,7.53-35.78,19.74-48.17l0.77-0.77
			c0.24-0.23,0.48-0.47,0.72-0.7l9.14-9.14l-58.79-58.79l-39.02,39.02c-20.11,20.1-32.56,47.89-32.56,78.58
			c0,29.81,11.75,56.89,30.86,76.85c0.47,0.49,0.95,0.99,1.44,1.47l0.81,0.81v-0.05l198.93,198.93
			c19.71,17.84,45.86,28.71,74.54,28.71c29.3,0,55.99-11.22,75.85-29.74l0.12-0.11l0.06-0.06c1.87-1.74,3.68-3.55,5.42-5.42
			l36.27-36.27l58.67-58.66l-0.01-0.01l93.34-93.34H615.22z"/>
		<path class="st0" d="M933.5,598.83L663.52,868.81c-2.59,2.89-5.33,5.63-8.22,8.22c-19.69,17.75-45.76,28.55-74.36,28.55
			l-16.09-1.17l-0.24-0.03c-0.07,0-0.13-0.01-0.18-0.02c-0.77-0.11-1.54-0.24-2.3-0.37c-0.57-0.09-1.14-0.19-1.7-0.3
			c-0.41-0.07-0.82-0.15-1.22-0.24c-0.03-0.01-0.06-0.01-0.09-0.02c-0.19-0.03-0.37-0.06-0.55-0.1c-0.2-0.04-0.4-0.08-0.6-0.13
			c-0.27-0.05-0.54-0.1-0.81-0.17c-0.73-0.16-1.45-0.32-2.17-0.5c-0.46-0.1-0.92-0.21-1.37-0.33c-0.11-0.02-0.21-0.05-0.31-0.08
			c-0.14-0.03-0.28-0.06-0.42-0.11c-0.04,0-0.08-0.01-0.11-0.03l-6.29-1.84c-0.72-0.23-1.45-0.48-2.16-0.73l-2.67-0.97
			c-0.79-0.29-1.56-0.6-2.34-0.91c-0.08-0.03-0.15-0.06-0.22-0.09c-13.86-5.59-26.32-13.91-36.71-24.28l-39.18-39.18l58.67-58.66
			l11.43,11.43c12.34,11.76,29.24,18.79,47.63,18.79c17.56,0,33.58-6.59,45.72-17.44l106.13-106.13H615.22l-34.47-83.1l0.04-0.04
			H933.5z"/>
		<path class="st0" d="M733.15,281.51H616.18l-94.19-94.19l-58.78,58.79l117.57,117.57H933.5L733.15,281.51z"/>
		<path class="st0" d="M933.5,363.68l-200.35-82.17l-97.75-97.76l-12.62-12.62c-11.58-8.92-26.09-14.22-41.84-14.22
			c-18.52,0-35.42,7.33-47.78,19.24l-11.17,11.17l-58.78,58.79L227.98,481.36l-58.79-58.8l235.24-235.23l58.78-58.79l37.59-37.58
			l2.6-2.61c20.01-19.45,47.43-31.43,77.54-31.43c28.56,0,54.59,10.77,74.27,28.47L933.5,363.68z"/>
		<path class="st0" d="M463.21,128.54l-58.78,58.79l-9.12-9.12c-0.75-0.8-1.53-1.58-2.33-2.33c-12.32-11.75-29-18.97-47.38-18.97
			c-17.01,0-32.58,6.19-44.57,16.43l-145.19,145.2c-10.54,12.07-16.93,27.85-16.93,45.14H38.99c0-28.91,10.77-55.15,28.81-74.89
			L269.68,86.91c19.87-18.61,46.56-29.99,75.92-29.99c30.11,0,57.42,11.97,77.42,31.43L463.21,128.54z"/>
		<path class="st0" d="M463.01,716.43l-58.67,58.68L169.28,540.05l-58.79-58.79L71.5,442.27c-20.1-20.11-32.51-47.91-32.51-78.59
			h99.92c0,18.95,7.59,36.17,20,48.6l10.28,10.28l58.79,58.8L463.01,716.43z"/>
		<line class="st0" x1="580.7" y1="598.74" x2="463.01" y2="716.43"/>
		<line class="st0" x1="615.22" y1="681.97" x2="521.88" y2="775.32"/>
		<line class="st0" x1="580.75" y1="598.87" x2="580.7" y2="598.74"/>
	</g>
	<text transform="matrix(1 0 0 1 1026.7805 714.1753)" class="st0 st1 st2">irta</text>
</g>
</svg>
