<?xml version="1.0" encoding="utf-8"?>
<!-- Generator: Adobe Illustrator 22.0.1, SVG Export Plug-In . SVG Version: 6.00 Build 0)  -->
<svg version="1.1" id="Layer_3" xmlns="http://www.w3.org/2000/svg" xmlns:xlink="http://www.w3.org/1999/xlink" x="0px" y="0px"
	 viewBox="0 0 3000 1080" style="enable-background:new 0 0 3000 1080;" xml:space="preserve">
<style type="text/css">
	.st0{fill:#4EA1D3;}
	.st1{fill:#454552;}
	.st2{font-family:'MyriadPro-Regular';}
	.st3{font-size:146.9733px;}
</style>
<g>
	<g>
		<g>
			<path class="st0" d="M2514,530.4h-61.4c-17,0-30.7-13.7-30.7-30.7c0-16.9,13.7-30.7,30.7-30.7h61.4c16.9,0,30.7,13.7,30.7,30.7
				C2544.7,516.7,2531,530.4,2514,530.4z"/>
		</g>
		<g>
			<path class="st0" d="M2392.3,622.5c-67.8,0-122.7-55-122.7-122.7s55-122.7,122.7-122.7c51.5,0,95.6,31.7,113.8,76.7h-73.2
				c-10.8-9.5-25-15.3-40.6-15.3c-33.9,0-61.4,27.5-61.4,61.4c0,33.9,27.5,61.4,61.4,61.4c15.6,0,29.8-5.8,40.6-15.3h73.2
				C2487.9,590.7,2443.8,622.5,2392.3,622.5z"/>
		</g>
		<g>
			<path class="st1" d="M206.2,385c-14.2,17.2-25.4,37.1-32.6,58.7H61.3c-4.6,0-9-0.5-13.3-1.5C21.3,436.3,1.2,413.1,0,385H206.2z"
				/>
		</g>
		<g>
			<path class="st1" d="M164.1,502.2c0,9.9,0.8,19.6,2.3,29.1h-63.7c-5,0-9.9-0.6-14.6-1.8c-25.8-6.3-45.3-29-46.7-56.4h124.9
				c-1.1,7.1-1.8,14.3-2.1,21.6C164.1,497.2,164.1,499.7,164.1,502.2z"/>
		</g>
		<g>
			<path class="st1" d="M448.5,541.5c0,10.1-1.8,19.6-5.4,28.4c-3.6,8.8-8.5,16.5-14.7,23.2c-6.2,6.7-13.4,11.9-21.7,15.7
				c-8.3,3.8-17.2,5.7-26.6,5.7H144.8c-32.8,0-59.7-25.9-61.3-58.4h296.6c3.8,0,7-1.4,9.7-4.3c2.7-2.9,4-6.3,4-10.3
				c0-4.1-1.3-6.9-4-8.1c-2.7-1.3-5.9-1.9-9.7-1.9H323c-9.5,0-18.5-1.9-26.8-5.8c-8.3-3.9-15.6-9.1-21.7-15.8
				c-6.2-6.7-11-14.4-14.6-23.3c-3.6-8.9-5.3-18.4-5.3-28.5c0-10.1,1.8-19.7,5.3-28.5c3.6-8.9,8.4-16.6,14.6-23.2
				c6.2-6.6,13.4-11.8,21.7-15.6c8.3-3.8,17.2-5.7,26.8-5.7h111.3v58.3H323c-3.8,0-7,1.4-9.7,4.3c-2.7,2.9-4,6.3-4,10.3
				c0,4.2,1.3,7.7,4,10.6c2.7,2.9,5.9,4.4,9.7,4.4h57.1c9.4,0,18.2,1.7,26.6,5c8.3,3.3,15.6,8,21.7,14c6.2,6,11.1,13.2,14.7,21.7
				C446.7,522.3,448.5,531.5,448.5,541.5z"/>
		</g>
		<g>
			<path class="st1" d="M3000,385.1c-1.4,28.2-21.8,51.4-48.6,57c-4.1,0.9-8.3,1.3-12.7,1.3H2634c-3.8,0-7,1.4-9.7,4.3
				c-2.7,2.9-4,6.3-4,10.3c0,4.1,1.3,7.7,4,10.6c2.7,2.9,5.9,4.4,9.7,4.4h57.1c9.4,0,18.2,1.7,26.6,5c8.3,3.3,15.6,8,21.7,14
				c6.2,6,11.1,13.2,14.7,21.7c3.6,8.5,5.4,17.7,5.4,27.7c0,10.1-1.8,19.6-5.4,28.4c-3.6,8.8-8.5,16.5-14.7,23.2
				c-6.2,6.7-13.4,11.9-21.7,15.7c-8.3,3.8-17.2,5.7-26.6,5.7h-125.6V556h125.6c3.8,0,7-1.4,9.7-4.3c2.7-2.9,4-6.3,4-10.3
				c0-4.1-1.3-6.9-4-8.2c-2.7-1.3-5.9-1.9-9.7-1.9H2634c-9.5,0-18.5-1.9-26.8-5.8c-8.3-3.9-15.6-9.1-21.7-15.8
				c-6.2-6.7-11-14.4-14.6-23.3c-3.6-8.9-5.3-18.4-5.3-28.5c0-10.1,1.8-19.7,5.3-28.5c3.6-8.9,8.4-16.6,14.6-23.2
				c6.2-6.6,13.4-11.8,21.7-15.6c8.3-3.8,17.2-5.7,26.8-5.7H3000z"/>
		</g>
		<g>
			<path class="st1" d="M2962,473c-1.4,27.4-20.8,50.1-46.7,56.4c-4.7,1.2-9.6,1.8-14.6,1.8h-55.6c1.5-9.5,2.3-19.2,2.3-29.1
				c0-0.6,0-1.2,0-1.9c0-2.6-0.1-5.1-0.2-7.7c-0.3-6.6-1-13.1-2.1-19.5H2962z"/>
		</g>
		<g>
			<path class="st1" d="M2919.9,556.1c-1.7,32.4-28.5,58.1-61.3,58.1h-49.2c3.5-4.6,6.8-9.3,9.9-14.2c8.5-13.5,15.3-28.3,20.1-43.9
				H2919.9z"/>
		</g>
		<g>
			<path class="st1" d="M621.8,540.4c-3.4,4-7.3,7.4-11.7,10.2c-4.4,2.8-9.1,4.9-14,6.4c-5,1.5-10.2,2.2-15.6,2.2
				c-7.5,0-14.6-1.4-21.3-4.3c-6.7-2.9-12.5-6.8-17.4-11.8c-4.9-5-8.8-10.9-11.6-17.5c-2.8-6.7-4.2-13.8-4.2-21.4
				c0-9.4,1.4-17.9,4.2-25.7c2.8-7.7,6.7-14.4,11.6-20.1c4.9-5.6,10.7-10,17.4-13.1c6.7-3.1,13.8-4.7,21.3-4.7
				c5.4,0,10.6,0.8,15.8,2.4c5.1,1.6,9.9,4,14.2,7.1c4.4,3.1,8.3,7,11.8,11.5c3.5,4.6,6.2,9.7,8.3,15.4l40.4-40.9
				c-4.8-8.3-10.6-15.6-17.3-22c-6.7-6.4-13.9-11.8-21.8-16.2c-7.9-4.4-16.1-7.8-24.8-10.1c-8.7-2.3-17.5-3.5-26.6-3.5
				c-15.2,0-29.5,3.1-42.9,9.4c-13.4,6.2-25.1,14.8-35.2,25.6c-10,10.8-17.9,23.5-23.7,38c-5.8,14.5-8.7,30.2-8.7,46.9
				c0,15.3,2.9,29.8,8.7,43.2c5.8,13.5,13.7,25.2,23.7,35.3c10,10.1,21.7,18,35.2,23.7c13.4,5.8,27.7,8.7,42.9,8.7
				c9,0,17.8-1,26.4-3.1c8.5-2.1,16.7-5.2,24.4-9.3c7.7-4.1,14.9-9,21.6-14.9c6.7-5.8,12.6-12.4,17.7-19.8l-40.4-41
				C628,531.9,625.2,536.4,621.8,540.4z"/>
		</g>
		<g>
			<path class="st1" d="M700.1,384.4V615h55.5V384.4H700.1z"/>
		</g>
		<g>
			<path class="st1" d="M928.4,540.4c-3.4,4-7.3,7.4-11.7,10.2c-4.4,2.8-9,4.9-14,6.4c-5,1.5-10.2,2.2-15.6,2.2
				c-2.2,0-4.3-0.1-6.5-0.3c-2.1-0.2-4.3-0.6-6.5-1.3l103.4-125.7c-5.1-7.3-11-13.9-17.8-19.9c-6.7-5.9-14-10.9-21.7-15
				c-7.7-4.1-15.9-7.2-24.5-9.4c-8.6-2.2-17.4-3.3-26.5-3.3c-15.2,0-29.5,2.8-42.9,8.4c-13.4,5.6-25.1,13.4-35.2,23.4
				c-10,10-17.9,22.2-23.7,36.5c-5.8,14.2-8.7,30-8.7,47.3c0,16.9,2.9,32.3,8.7,46.4c5.8,14.1,13.7,26.2,23.7,36.4
				c10,10.2,21.8,18.1,35.2,23.8c13.4,5.7,27.7,8.6,42.9,8.6c9,0,17.8-1,26.4-3.1c8.6-2.1,16.7-5.2,24.4-9.3
				c7.7-4.1,14.9-9,21.6-14.9c6.7-5.8,12.6-12.4,17.7-19.8l-40.4-41C934.6,531.9,931.8,536.4,928.4,540.4z M838.2,528.9
				c-1.1-1.9-1.9-4.1-2.6-6.5c-0.7-2.4-1.2-5-1.7-7.7c-0.5-2.7-0.8-5.3-1-7.8c-0.2-2.6-0.3-4.9-0.3-6.9c0-9.1,1.4-17.3,4.2-24.5
				c2.8-7.3,6.7-13.5,11.6-18.7c4.9-5.2,10.7-9.1,17.4-11.9c6.7-2.8,13.8-4.2,21.3-4.2c2.7,0,5.3,0.1,7.8,0.4c2.5,0.3,5,0.9,7.6,1.8
				L838.2,528.9z"/>
		</g>
		<g>
			<g>
				<path class="st1" d="M2220.4,414.1c-2.2-2.3-4.4-4.4-6.7-6.4c-1.5-1.3-3.1-2.5-4.6-3.7c-0.5-0.4-0.9-0.7-1.4-1.1
					c-1.3-1-2.7-1.9-4.1-2.8c-0.8-0.5-1.6-1-2.4-1.5c-1.1-0.7-2.2-1.3-3.3-1.9c-3.5-2-7.1-3.7-10.9-5.3c-11.1-4.5-22.8-6.8-34.9-6.9
					c-12.1,0-23.8,2.3-34.9,6.9c-3.8,1.5-7.4,3.3-10.9,5.3c-1.1,0.6-2.2,1.3-3.3,1.9c-0.8,0.5-1.6,1-2.4,1.5
					c-1.4,0.9-2.8,1.8-4.1,2.8c-0.5,0.4-1,0.7-1.4,1.1c-1.6,1.2-3.1,2.4-4.6,3.7c-2.3,2-4.6,4.2-6.7,6.4c-8.8,9.2-15.7,20-20.7,32.3
					c-5,12.3-7.6,25.5-7.6,39.4v129.3h55.1V485.8c0-5.9,1.1-11.5,3.2-16.8c2.2-5.3,5.1-9.9,8.9-13.8c3.8-3.9,8.1-7,13.1-9.3
					c5-2.3,10.3-3.4,16-3.4c0.1,0,0.2,0,0.3,0c0.1,0,0.2,0,0.3,0c5.7,0,11,1.1,16,3.4c5,2.3,9.4,5.4,13.1,9.3
					c3.8,3.9,6.7,8.6,8.9,13.8c2.2,5.3,3.2,10.9,3.2,16.8v129.3h55.1V485.8c0-13.9-2.5-27.1-7.6-39.4
					C2236.1,434.1,2229.2,423.3,2220.4,414.1z"/>
			</g>
		</g>
		<g>
			<g>
				<path class="st1" d="M1172.3,414.1c-2.2-2.3-4.4-4.4-6.7-6.4c-1.5-1.3-3.1-2.5-4.6-3.7c-0.5-0.4-0.9-0.7-1.4-1.1
					c-1.3-1-2.7-1.9-4.1-2.8c-0.8-0.5-1.6-1-2.4-1.5c-1.1-0.7-2.2-1.3-3.3-1.9c-3.5-2-7.1-3.7-10.9-5.3c-11.1-4.5-22.8-6.8-34.9-6.9
					c-12.1,0-23.8,2.3-34.9,6.9c-3.8,1.5-7.4,3.3-10.9,5.3c-1.1,0.6-2.2,1.3-3.3,1.9c-0.8,0.5-1.6,1-2.4,1.5
					c-1.4,0.9-2.8,1.8-4.1,2.8c-0.5,0.4-1,0.7-1.4,1.1c-1.6,1.2-3.1,2.4-4.6,3.7c-2.3,2-4.6,4.2-6.7,6.4c-8.8,9.2-15.7,20-20.7,32.3
					c-5,12.3-7.6,25.5-7.6,39.4v129.3h55.1V485.8c0-5.9,1.1-11.5,3.2-16.8c2.2-5.3,5.1-9.9,8.9-13.8c3.8-3.9,8.1-7,13.1-9.3
					c5-2.3,10.3-3.4,16-3.4c0.1,0,0.2,0,0.3,0c0.1,0,0.2,0,0.3,0c5.7,0,11,1.1,16,3.4c5,2.3,9.4,5.4,13.1,9.3
					c3.8,3.9,6.7,8.6,8.9,13.8c2.2,5.3,3.2,10.9,3.2,16.8v129.3h55.1V485.8c0-13.9-2.5-27.1-7.6-39.4
					C1187.9,434.1,1181,423.3,1172.3,414.1z"/>
			</g>
		</g>
		<g>
			<path class="st1" d="M1373.3,540.4c-3.4,4-7.3,7.4-11.7,10.2c-4.4,2.8-9,4.9-14,6.4c-5,1.5-10.2,2.2-15.6,2.2
				c-7.6,0-14.6-1.4-21.3-4.3c-6.7-2.9-12.5-6.8-17.4-11.8c-4.9-5-8.8-10.9-11.6-17.5c-2.8-6.7-4.2-13.8-4.2-21.4
				c0-9.4,1.4-17.9,4.2-25.7c2.8-7.7,6.7-14.4,11.6-20.1c4.9-5.6,10.7-10,17.4-13.1c6.7-3.1,13.8-4.7,21.3-4.7
				c5.4,0,10.6,0.8,15.8,2.4c5.1,1.6,9.9,4,14.2,7.1c4.4,3.1,8.3,7,11.8,11.5c3.5,4.6,6.3,9.7,8.3,15.4l40.4-40.9
				c-4.9-8.3-10.6-15.6-17.3-22c-6.7-6.4-13.9-11.8-21.8-16.2c-7.9-4.4-16.1-7.8-24.8-10.1c-8.7-2.3-17.5-3.5-26.6-3.5
				c-15.2,0-29.5,3.1-42.9,9.4c-13.4,6.2-25.1,14.8-35.1,25.6c-10,10.8-17.9,23.5-23.7,38c-5.8,14.5-8.7,30.2-8.7,46.9
				c0,15.3,2.9,29.8,8.7,43.2c5.8,13.5,13.7,25.2,23.7,35.3c10,10.1,21.7,18,35.1,23.7c13.4,5.8,27.7,8.7,42.9,8.7
				c9,0,17.8-1,26.4-3.1c8.6-2.1,16.7-5.2,24.4-9.3c7.8-4.1,15-9,21.6-14.9c6.7-5.8,12.6-12.4,17.7-19.8l-40.4-41
				C1379.5,531.9,1376.7,536.4,1373.3,540.4z"/>
		</g>
		<g>
			<path class="st1" d="M1604,540.4c-3.4,4-7.3,7.4-11.7,10.2c-4.4,2.8-9.1,4.9-14,6.4c-5,1.5-10.2,2.2-15.6,2.2
				c-2.2,0-4.3-0.1-6.5-0.3c-2.1-0.2-4.3-0.6-6.5-1.3l103.4-125.7c-5.1-7.3-11-13.9-17.8-19.9c-6.7-5.9-14-10.9-21.7-15
				c-7.7-4.1-15.9-7.2-24.5-9.4c-8.6-2.2-17.4-3.3-26.5-3.3c-15.2,0-29.5,2.8-42.9,8.4c-13.4,5.6-25.1,13.4-35.1,23.4
				c-10,10-17.9,22.2-23.7,36.5c-5.8,14.2-8.7,30-8.7,47.3c0,16.9,2.9,32.3,8.7,46.4c5.8,14.1,13.7,26.2,23.7,36.4
				c10,10.2,21.7,18.1,35.1,23.8c13.4,5.7,27.7,8.6,42.9,8.6c9,0,17.8-1,26.4-3.1c8.6-2.1,16.7-5.2,24.4-9.3c7.8-4.1,15-9,21.6-14.9
				c6.7-5.8,12.6-12.4,17.7-19.8l-40.4-41C1610.2,531.9,1607.4,536.4,1604,540.4z M1513.8,527.6c-1.1-1.9-1.9-4-2.6-6.4
				c-0.7-2.4-1.2-4.9-1.7-7.5c-0.5-2.6-0.8-5.1-1-7.7c-0.2-2.5-0.3-4.8-0.3-6.8c0-8.9,1.4-16.9,4.2-24c2.8-7.1,6.7-13.2,11.6-18.2
				c4.9-5,10.7-8.9,17.4-11.7c6.7-2.7,13.8-4.1,21.3-4.1c2.7,0,5.3,0.1,7.8,0.4c2.5,0.3,5,0.9,7.6,1.8L1513.8,527.6z"/>
		</g>
		<g>
			<path class="st1" d="M1903,384.4v144.5c0,4-0.8,7.7-2.2,11.1c-1.5,3.5-3.5,6.5-6,9.1c-2.5,2.6-5.4,4.7-8.8,6.1
				c-3.4,1.5-6.9,2.2-10.7,2.2c-3.8,0-7.3-0.7-10.6-2.2c-3.3-1.5-6.2-3.5-8.7-6.1c-2.5-2.6-4.5-5.6-6-9.1c-1.5-3.5-2.2-7.2-2.2-11.1
				V384.4H1793v144.5c0,4-0.7,7.7-2.1,11.1c-1.4,3.5-3.4,6.5-6,9.1c-2.6,2.6-5.5,4.7-8.9,6.1c-3.4,1.5-6.9,2.2-10.7,2.2
				c-3.8,0-7.3-0.7-10.6-2.2c-3.3-1.5-6.2-3.5-8.7-6.1c-2.5-2.6-4.4-5.6-5.9-9.1c-1.4-3.5-2.1-7.2-2.1-11.1V384.4h-55.1v144.5
				c0,11.9,2.1,23.1,6.5,33.6c4.3,10.5,10.2,19.7,17.7,27.4c7.5,7.8,16.2,13.9,26.1,18.4c10,4.5,20.7,6.8,32.1,6.8
				c10.3,0,20.2-1.9,29.6-5.6c9.4-3.7,17.8-9.2,25.4-16.4c7.7,7.2,16.2,12.7,25.7,16.4c9.4,3.8,19.2,5.6,29.5,5.6
				c11.5,0,22.2-2.2,32.2-6.8c10-4.5,18.8-10.7,26.3-18.4c7.5-7.8,13.4-16.9,17.7-27.4c4.3-10.5,6.5-21.7,6.5-33.6V384.4H1903z"/>
		</g>
		<g>
			<path class="st1" d="M1978.9,384.4V615h55.5V384.4H1978.9z"/>
		</g>
	</g>
	<text transform="matrix(1 0 0 1 2934.9873 666.2905)" class="st1 st2 st3">®</text>
</g>
</svg>
