<?xml version="1.0" encoding="utf-8"?>
<!-- Generator: Adobe Illustrator 22.0.1, SVG Export Plug-In . SVG Version: 6.00 Build 0)  -->
<svg version="1.1" id="Layer_2" xmlns="http://www.w3.org/2000/svg" xmlns:xlink="http://www.w3.org/1999/xlink" x="0px" y="0px"
	 viewBox="0 0 1080 1080" style="enable-background:new 0 0 1080 1080;" xml:space="preserve">
<style type="text/css">
	.st0{fill:#4EA1D3;}
	.st1{fill:#454552;}
</style>
<g>
	<g>
		<path class="st0" d="M729.4,588.1h-96.2c-26.6,0-48.1-21.5-48.1-48.1c0-26.6,21.5-48.1,48.1-48.1h96.2c26.6,0,48.1,21.5,48.1,48.1
			C777.5,566.6,756,588.1,729.4,588.1z"/>
	</g>
	<g>
		<path class="st0" d="M538.6,732.4c-106.3,0-192.4-86.1-192.4-192.4s86.1-192.4,192.4-192.4c80.8,0,149.9,49.7,178.4,120.2H602.2
			c-17-14.9-39.2-24-63.6-24c-53.1,0-96.2,43.1-96.2,96.2c0,53.1,43.1,96.2,96.2,96.2c24.4,0,46.7-9.1,63.6-24.1H717
			C688.5,682.7,619.4,732.4,538.6,732.4z"/>
	</g>
	<g>
		<path class="st1" d="M317.4,355.1c-22.3,27-39.8,58.1-51.1,92H96.1c-7.2,0-14.2-0.8-20.9-2.3C33.4,435.5,1.9,399.2,0,355.1H317.4z
			"/>
	</g>
	<path class="st1" d="M251.4,538.7c0,15.5,1.2,30.7,3.6,45.6h-94c-7.9,0-15.6-1-22.9-2.8c-40.5-9.9-70.9-45.4-73.1-88.4H255
		c-1.4,8.6-2.4,17.3-2.9,26.1l-0.3,6C251.5,529.7,251.4,534.2,251.4,538.7z"/>
	<g>
		<path class="st1" d="M311.1,714.4H227c-51.5,0-93.4-40.3-96.1-91.1H264c7,22.9,16.8,44.7,29,64.8
			C298.6,697.2,304.6,706,311.1,714.4z"/>
	</g>
	<g>
		<path class="st1" d="M1080,355.1c-1.9,44.4-33.9,81-76.1,89.9c-6,1.3-12.3,2-18.7,2H813.7c-11.4-33.9-28.8-65-51.1-92H1080z"/>
	</g>
	<g>
		<path class="st1" d="M985.2,447.1c-0.4,0-0.8,0-1.2,0c-0.4,0-0.8,0-1.2,0H985.2z"/>
	</g>
	<g>
		<path class="st1" d="M985.2,447.1c-0.4,0-0.8,0-1.2,0c-0.4,0-0.8,0-1.2,0H985.2z"/>
	</g>
	<path class="st1" d="M1014,493.1c-2.2,43-32.6,78.5-73.1,88.4c-7.3,1.8-15,2.8-22.9,2.8h-93c2.4-14.8,3.6-30.1,3.6-45.6
		c0-4.6-0.1-9.2-0.3-13.7c0-0.8,0-1.5-0.1-2.3v0c-0.5-10-1.6-19.8-3.2-29.5H1014z"/>
	<g>
		<path class="st1" d="M948,623.3c-2.7,50.7-44.6,91.1-96.1,91.1h-83c6.3-8.2,12.2-16.8,17.6-25.7c12.4-20.3,22.3-42.2,29.4-65.4
			H948z"/>
	</g>
</g>
</svg>
